inDegrees=no
num_controls=7
num_derivatives=13
num_iterations=61
num_multipliers=7
num_parameters=0
num_slacks=7
num_states=26
objective=0.334262
objective_accelerations=0.036311
objective_balance=0.001308
objective_effort=0.026809
objective_height=0.268361
objective_ligament=0.001473
solver_duration=643.490801
status=Solve_Succeeded
success=true
DataType=double
version=3
OpenSimVersion=4.5
endheader
time	/jointset/ground_pelvis/pelvis_tilt/value	/jointset/ground_pelvis/pelvis_tx/value	/jointset/ground_pelvis/pelvis_ty/value	/jointset/hip_r/hip_flexion_r/value	/jointset/hip_r/hip_adduction_r/value	/jointset/hip_r/hip_rotation_r/value	/jointset/back/lumbar_extension/value	/jointset/patellofemoral_r/patellar_flexion_r/value	/jointset/knee_r/knee_flexion_r/value	/jointset/knee_r/knee_adduction_r/value	/jointset/knee_r/knee_rotation_r/value	/jointset/ankle_r/ankle_angle_r/value	/jointset/subtalar_r/subtalar_angle_r/value	/jointset/ground_pelvis/pelvis_tilt/speed	/jointset/ground_pelvis/pelvis_tx/speed	/jointset/ground_pelvis/pelvis_ty/speed	/jointset/hip_r/hip_flexion_r/speed	/jointset/hip_r/hip_adduction_r/speed	/jointset/hip_r/hip_rotation_r/speed	/jointset/back/lumbar_extension/speed	/jointset/patellofemoral_r/patellar_flexion_r/speed	/jointset/knee_r/knee_flexion_r/speed	/jointset/knee_r/knee_adduction_r/speed	/jointset/knee_r/knee_rotation_r/speed	/jointset/ankle_r/ankle_angle_r/speed	/jointset/subtalar_r/subtalar_angle_r/speed	/forceset/tau_hip_flexion_r	/forceset/tau_hip_adduction_r	/forceset/tau_hip_rotation_r	/forceset/tau_knee_flexion_r	/forceset/tau_ankle_angle_r	/forceset/tau_subtalar_angle_r	/forceset/tau_lumbar_extension	lambda_cid13_p0	lambda_cid14_p0	lambda_cid14_p1	lambda_cid14_p2	lambda_cid14_p3	lambda_cid14_p4	lambda_cid14_p5	/jointset/ground_pelvis/pelvis_tilt/accel	/jointset/ground_pelvis/pelvis_tx/accel	/jointset/ground_pelvis/pelvis_ty/accel	/jointset/hip_r/hip_flexion_r/accel	/jointset/hip_r/hip_adduction_r/accel	/jointset/hip_r/hip_rotation_r/accel	/jointset/back/lumbar_extension/accel	/jointset/patellofemoral_r/patellar_flexion_r/accel	/jointset/knee_r/knee_flexion_r/accel	/jointset/knee_r/knee_adduction_r/accel	/jointset/knee_r/knee_rotation_r/accel	/jointset/ankle_r/ankle_angle_r/accel	/jointset/subtalar_r/subtalar_angle_r/accel	gamma_cid13_p0	gamma_cid14_p0	gamma_cid14_p1	gamma_cid14_p2	gamma_cid14_p3	gamma_cid14_p4	gamma_cid14_p5
1.5	-0.1052675890068357	0.04037303127971459	0.8188424406253778	0.8167529553406628	-0.2262217284442936	-0.1237084237436636	-0.6202862002228308	0.9279036186038528	0.9279036186038532	-0.03505293079368986	0.1742103953737093	0.3062588833939365	0.1381731060580252	0.5112140334843731	0.2208320272190496	0.5015787236874111	-2.043710603617025	-0.004184883576297441	-0.1651847411368977	0.7985221178986825	-1.941803304206998	-1.941803304206999	0.5052335215072257	0.001878484682314714	-0.5300832478842722	-0.2180321015765225	-0.1674062535649169	0.02129914816594155	0.01758432121370416	-0.283464131677141	-0.008177390740665704	-0.008675605821938307	0.2149853304802	-9.785822976863004	-44.99271039397158	-11.08811178507474	1.55276677950763	-0.4890120460934136	-627.3189513099776	50.88887442705258	0.1222049752436293	0.5112472896155644	-0.5367044333624302	-0.9171647659871174	-0.2673277764033219	-0.70274845966041	1.672574856303582	-1.316227199695394	-1.316227199695394	0.4225486015615139	-0.0377427238074652	-0.6937061895621134	-0.4502749637946458	1.676853380674817e-07	1.468786502813335e-07	-1.000030558469938e-06	1.554064485564477e-06	5.208565840679399e-09	3.521616165298112e-07	-8.152773858258795e-07
1.51	-0.1001496004223971	0.04260667063396741	0.8238303522335313	0.7962720096084033	-0.226278005038856	-0.1253943741926729	-0.6122191425928348	0.9084225720892646	0.9084225720892647	-0.02997709171476387	0.1742281835743021	0.3009239900984987	0.1359690501870522	0.5123112808728945	0.2258666129579889	0.4958924117701947	-2.05219684529823	-0.007089094835719362	-0.1719584471750827	0.8147577950773771	-1.954104267308016	-1.954104267308018	0.5099498817170349	0.001654402078566913	-0.5368002936931091	-0.2227504573773376	-0.1596743096739963	0.01908850065909846	0.01777522168399688	-0.2802011954227743	-0.005714553600431245	-0.009363901120604168	0.2079891936544325	-10.80463947282062	-43.90406717293512	-11.02846506198465	1.351407352427366	-0.7042144210592257	-622.2852827583123	50.99491211460749	0.09263478802402809	0.4951818470806102	-0.6012034206204925	-0.7720829265711086	-0.304620325265288	-0.657375802655363	1.579322195185252	-1.141803732837952	-1.141803732838387	0.4983943402220939	-0.01820072154000601	-0.6463981810182562	-0.4783079572146046	1.645201813456472e-07	1.419021377896678e-07	-1.001393188328582e-06	1.49304664947912e-06	9.136765322753149e-09	3.476865432049297e-07	-8.291729856997373e-07
1.52	-0.09502280933059974	0.04488977937181913	0.8287580789525686	0.7757146556478549	-0.2263638542509235	-0.1271466005274159	-0.6039936765817454	0.8888275613701596	0.8888275613701595	-0.0248536461118335	0.174243039010281	0.2955247874640779	0.1337186723442731	0.5129745349561181	0.2307259039388284	0.4895417458642078	-2.058992249274797	-0.01009940707729704	-0.1784399182836535	0.8302037941173872	-1.964596145110357	-1.964596145110363	0.5147548263081027	0.001291931759556365	-0.5429451156808994	-0.2272964959377394	-0.1519423657830756	0.01687785315225538	0.01796612215428976	-0.2769382591683895	-0.003251716460196806	-0.01005219641927002	0.2009930568286308	-11.82489584605514	-42.81573861696715	-10.96789776406034	1.148785811036442	-0.9273778289919474	-617.2468346617828	51.16146961287952	0.03540631418409647	0.4761883379956049	-0.6695752311165439	-0.5789972250601005	-0.2885479728344721	-0.6443014737375918	1.514639228566689	-0.9544101399603737	-0.9544101399601489	0.440265477813189	-0.06542026686001498	-0.5792614253530102	-0.4158115157119991	1.616556765706022e-07	1.322112676892068e-07	-1.077751743877538e-06	1.370343811027694e-06	2.372212539845069e-08	3.429775117478319e-07	-8.862455996097357e-07
1.53	-0.08989170166719641	0.04722046112737174	0.8336190361525252	0.7550981055689509	-0.2264799281627965	-0.1289640289842729	-0.5956178009346342	0.8691365179890136	0.8691365179890135	-0.01968380569442232	0.1742541776727644	0.2900669966325834	0.1314243566702815	0.5131638384943755	0.2353664574000951	0.48254498933393	-2.064006429340201	-0.0131007291179271	-0.1851127048462248	0.8448233670816436	-1.973314473476464	-1.973314473476469	0.5190882389769582	0.0009516224927158322	-0.5485182340570525	-0.2314888404449727	-0.144296861666926	0.01471923576921205	0.01813673125706024	-0.2735928701510197	-0.001239763713161673	-0.01082633927447555	0.1940139191096555	-12.84349497951947	-41.90318388602725	-10.97841984929183	0.9609581413241955	-0.9167423940010364	-612.4776266900498	51.23720999312671	-0.001774190796006213	0.4514030846480315	-0.7303645097942738	-0.415915738471443	-0.3036593948204079	-0.6885657286630544	1.41342109687732	-0.7858670882015635	-0.7858670882016489	0.4109621020188594	-0.0157906846979937	-0.5320665378715619	-0.4093554178662297	1.591106144890208e-07	1.175113926294008e-07	-1.233793470472448e-06	1.182100657562319e-06	4.96307186048734e-08	3.380198997752542e-07	-9.891937909331329e-07
1.54	-0.08476119428129907	0.04959623126442803	0.8384068980580167	0.7344407562211546	-0.2266255623101043	-0.1308501450029836	-0.5871001686045763	0.8493672267435534	0.8493672267435535	-0.01447441456220321	0.1742624223569589	0.2845563287185024	0.1290904356512902	0.5128544794549281	0.2397435802395621	0.474922686971217	-2.067152103053242	-0.0160114541642826	-0.1921774306543979	0.8585551307067911	-1.9802457179732	-1.980245717973207	0.5226649692696732	0.0007131361017963515	-0.5535205321981987	-0.2352175649376955	-0.1366513575507763	0.01256061838616877	0.01830734035983058	-0.27024748113365	0.0007721890338734536	-0.01160048212968101	0.1870347813906803	-13.85629201646243	-40.9916676083791	-10.98886010506646	0.7728164857296347	-0.9113314363989354	-607.7162061316733	51.36683153698813	-0.06432620135705858	0.4235022136356928	-0.7946843976035761	-0.2052959545877062	-0.2704285739795611	-0.7226893228579651	1.337077360744939	-0.596993366086336	-0.5969933660863358	0.2889290025825388	-0.04505569167601423	-0.4650973783505569	-0.323087512809916	1.653961410385188e-07	1.048639805850919e-07	-1.484579048475807e-06	9.558374176542238e-07	8.636888706355017e-08	3.22912567613822e-07	-1.116687054330857e-06
1.55	-0.07963618839754678	0.05201454279700272	0.8431155143297575	0.7137610556664371	-0.2267998497774342	-0.1328095973967353	-0.5784496531998393	0.8295376637202403	0.829537663720241	-0.009233442146699113	0.1742694762601286	0.2789987880828004	0.1267216401656825	0.5120668307980667	0.2438829662083078	0.4667056294618723	-2.068490823148606	-0.01883951328866122	-0.199729270664961	0.8714058062654767	-1.985344456045079	-1.985344456045086	0.5254605411573638	0.000708336970620438	-0.5578655486049452	-0.2384721957773845	-0.1289033564766837	0.009941307589520375	0.01852836884422841	-0.2677651404719963	0.003898385457241159	-0.01247260155201289	0.1801058092657482	-14.85976712712961	-39.75274316052354	-11.00592235534928	0.6101714796672666	-1.279535365806842	-603.4078506130572	51.62395179136781	-0.09795701907170248	0.4038253637689679	-0.8494008706129905	-0.05357287651848851	-0.288093366761618	-0.7736411910333376	1.237741057165749	-0.4179876311747939	-0.4179876311749743	0.264249165102079	0.02346606598969431	-0.4008187907430919	-0.3165096393864792	1.818560414455642e-07	9.458136288472529e-08	-1.844526020493241e-06	6.857684259751691e-07	1.355846096172146e-07	2.961109926261017e-07	-1.272460509466391e-06
1.56	-0.07452145356460731	0.05447318190431987	0.8477391231378021	0.6930768853428643	-0.2270022375930267	-0.1348450101607677	-0.5696748953587686	0.8096667785955212	0.8096667785955222	-0.00396663843567024	0.1742768137899521	0.2734014742792497	0.1243223266177102	0.5108002692923672	0.2478090951880522	0.4579211942320049	-2.068046056824282	-0.02163152381681725	-0.207369504710551	0.8834036179735731	-1.988510138254409	-1.988510138254417	0.5278312283746444	0.0007698614325674857	-0.5614751657679496	-0.2413211774105974	-0.1211553554025909	0.007321996792871928	0.01874939732862678	-0.2652827998103361	0.007024581880608833	-0.01334472097434488	0.1731768371407824	-15.851323803948	-38.51505360385128	-11.02374438567133	0.4482686684702263	-1.646574498143668	-599.1069278898372	51.92324122732455	-0.1601087711246541	0.3808508158354589	-0.9081599417080913	0.1514013293496417	-0.2632188547350416	-0.7403681298633433	1.16650459062711	-0.2103821935771971	-0.2103821935770087	0.2039520685005106	-0.03179097305142244	-0.3180175296023564	-0.2419576715147194	1.935148112265049e-07	7.215005223738445e-08	-2.257760538355865e-06	2.072833426511843e-07	2.018079281029016e-07	2.282748983228129e-07	-1.379435446423002e-06
